<svg width="32" height="32" viewBox="0 0 32 32" fill="none" xmlns="http://www.w3.org/2000/svg">
<path d="M7.68579 15.6989C7.68579 18.5694 9.2173 21.2218 11.7032 22.6569C14.189 24.0921 17.252 24.0921 19.7379 22.6569C22.2239 21.2216 23.7554 18.5692 23.7554 15.6989C23.315 5.01616 8.12645 5.01304 7.68604 15.6989H7.68579ZM10.1591 15.6989C10.1591 13.7119 11.219 11.8761 12.9399 10.8826C14.6605 9.88917 16.7804 9.88917 18.501 10.8826C20.2219 11.8761 21.2818 13.7119 21.2818 15.6989C20.978 23.0941 10.4806 23.0979 10.1593 15.6989H10.1591Z" fill="#1F2039"/>
<path d="M24.0725 0H7.3675C5.41398 0.0019494 3.54105 0.778514 2.15994 2.15994C0.778514 3.54112 0.00193381 5.41398 0 7.3675V24.0725C0.00194941 26.026 0.778514 27.8989 2.15994 29.2801C3.54112 30.6615 5.41398 31.4381 7.3675 31.44H24.0725C26.026 31.438 27.899 30.6615 29.2801 29.2801C30.6615 27.8989 31.4381 26.026 31.44 24.0725V7.3675C31.4381 5.41398 30.6615 3.54105 29.2801 2.15994C27.8989 0.778514 26.026 0.00193381 24.0725 0ZM28.9947 24.0722C28.9957 25.3781 28.4774 26.6306 27.5541 27.5538C26.6308 28.477 25.3783 28.9953 24.0725 28.9944H7.3675C6.06162 28.9954 4.80914 28.4771 3.8859 27.5538C2.96266 26.6305 2.44434 25.378 2.44527 24.0722V7.36719C2.4443 6.06131 2.9626 4.80882 3.8859 3.88558C4.8092 2.96235 6.06168 2.44402 7.3675 2.44496H24.0725C25.3784 2.44398 26.6309 2.96228 27.5541 3.88558C28.4774 4.80889 28.9957 6.06137 28.9947 7.36719V24.0722Z" fill="#1F2039"/>
<path d="M24.4536 5.58887C24.083 5.58887 23.7277 5.73605 23.4655 5.998C23.2036 6.26019 23.0564 6.61547 23.0564 6.98611C23.0564 7.35676 23.2036 7.71204 23.4655 7.97423C23.7277 8.23618 24.083 8.38336 24.4536 8.38336C24.8243 8.38336 25.1796 8.23618 25.4418 7.97423C25.7037 7.71203 25.8509 7.35676 25.8509 6.98611C25.8509 6.61547 25.7037 6.26019 25.4418 5.998C25.1796 5.73605 24.8243 5.58887 24.4536 5.58887Z" fill="#1F2039"/>
</svg>
