<svg width="83" height="45" viewBox="0 0 83 45" fill="none" xmlns="http://www.w3.org/2000/svg">
<path d="M11.172 21.9998C11.0227 21.9998 10.92 21.9345 10.864 21.8038L6.944 13.4318C6.92533 13.3758 6.888 13.3478 6.832 13.3478H2.8C2.72533 13.3478 2.688 13.3852 2.688 13.4598V21.7198C2.688 21.9065 2.59467 21.9998 2.408 21.9998H0.28C0.0933334 21.9998 0 21.9065 0 21.7198V2.67983C0 2.49316 0.0933334 2.39983 0.28 2.39983H7.812C8.932 2.39983 9.912 2.63316 10.752 3.09983C11.6107 3.56649 12.2733 4.21983 12.74 5.05983C13.2067 5.89983 13.44 6.87049 13.44 7.97183C13.44 9.27849 13.0947 10.3892 12.404 11.3038C11.732 12.1998 10.7893 12.8065 9.576 13.1238C9.50133 13.1612 9.48267 13.2078 9.52 13.2638L13.58 21.6638C13.5987 21.7012 13.608 21.7478 13.608 21.8038C13.608 21.9345 13.5333 21.9998 13.384 21.9998H11.172ZM2.8 4.72383C2.72533 4.72383 2.688 4.76116 2.688 4.83583V11.1078C2.688 11.1825 2.72533 11.2198 2.8 11.2198H7.476C8.46533 11.2198 9.25867 10.9305 9.856 10.3518C10.4533 9.75449 10.752 8.97049 10.752 7.99983C10.752 7.01049 10.4533 6.21716 9.856 5.61983C9.25867 5.02249 8.46533 4.72383 7.476 4.72383H2.8Z" fill="black"/>
<path d="M22.5505 22.2238C21.1692 22.2238 19.9652 21.8785 18.9385 21.1878C17.9118 20.4785 17.1932 19.4985 16.7825 18.2478C16.4465 17.2398 16.2785 16.1012 16.2785 14.8318C16.2785 13.5065 16.4372 12.3865 16.7545 11.4718C17.1652 10.2398 17.8838 9.27849 18.9105 8.58783C19.9372 7.87849 21.1598 7.52383 22.5785 7.52383C23.9225 7.52383 25.0892 7.87849 26.0785 8.58783C27.0865 9.27849 27.8052 10.2305 28.2345 11.4438C28.5705 12.3958 28.7385 13.5158 28.7385 14.8038C28.7385 16.1105 28.5705 17.2585 28.2345 18.2478C27.8238 19.4985 27.1145 20.4785 26.1065 21.1878C25.0985 21.8785 23.9132 22.2238 22.5505 22.2238ZM22.5505 19.8998C23.2972 19.8998 23.9505 19.6945 24.5105 19.2838C25.0705 18.8545 25.4718 18.2572 25.7145 17.4918C25.9198 16.7825 26.0225 15.9052 26.0225 14.8598C26.0225 13.8145 25.9292 12.9465 25.7425 12.2558C25.4998 11.4905 25.0985 10.9025 24.5385 10.4918C23.9785 10.0625 23.2972 9.84783 22.4945 9.84783C21.7292 9.84783 21.0665 10.0625 20.5065 10.4918C19.9465 10.9025 19.5452 11.4905 19.3025 12.2558C19.0972 12.9092 18.9945 13.7772 18.9945 14.8598C18.9945 15.9425 19.0972 16.8198 19.3025 17.4918C19.5265 18.2572 19.9185 18.8545 20.4785 19.2838C21.0572 19.6945 21.7478 19.8998 22.5505 19.8998Z" fill="black"/>
<path d="M43.7658 11.4438C44.0644 12.3958 44.2137 13.5252 44.2137 14.8318C44.2137 16.2318 44.0364 17.4265 43.6817 18.4158C43.2711 19.6292 42.6177 20.5718 41.7217 21.2438C40.8444 21.8972 39.7337 22.2238 38.3897 22.2238C37.7364 22.2238 37.1297 22.0932 36.5697 21.8318C36.0097 21.5705 35.5244 21.2065 35.1138 20.7398C35.0764 20.7025 35.0391 20.6932 35.0017 20.7118C34.9831 20.7305 34.9737 20.7585 34.9737 20.7958V21.7198C34.9737 21.9065 34.8804 21.9998 34.6937 21.9998H32.5658C32.3791 21.9998 32.2857 21.9065 32.2857 21.7198V2.67983C32.2857 2.49316 32.3791 2.39983 32.5658 2.39983H34.6937C34.8804 2.39983 34.9737 2.49316 34.9737 2.67983V8.92383C34.9737 8.96116 34.9831 8.98916 35.0017 9.00783C35.0391 9.02649 35.0764 9.01716 35.1138 8.97983C35.5244 8.51316 36.0097 8.15849 36.5697 7.91583C37.1484 7.65449 37.7551 7.52383 38.3897 7.52383C39.7897 7.52383 40.9377 7.86916 41.8337 8.55983C42.7297 9.25049 43.3737 10.2118 43.7658 11.4438ZM40.7977 18.3598C41.2644 17.4825 41.4977 16.3252 41.4977 14.8878C41.4977 13.3572 41.1991 12.1252 40.6017 11.1918C40.0604 10.2958 39.2297 9.84783 38.1097 9.84783C37.0644 9.84783 36.2711 10.3238 35.7297 11.2758C35.2444 12.1345 35.0017 13.3292 35.0017 14.8598C35.0017 16.3905 35.2257 17.5665 35.6737 18.3878C36.2337 19.3958 37.0551 19.8998 38.1377 19.8998C39.3697 19.8998 40.2564 19.3865 40.7977 18.3598Z" fill="black"/>
<path d="M59.215 11.4438C59.5136 12.3958 59.663 13.5252 59.663 14.8318C59.663 16.2318 59.4856 17.4265 59.131 18.4158C58.7203 19.6292 58.067 20.5718 57.171 21.2438C56.2936 21.8972 55.183 22.2238 53.839 22.2238C53.1856 22.2238 52.579 22.0932 52.019 21.8318C51.459 21.5705 50.9736 21.2065 50.563 20.7398C50.5256 20.7025 50.4883 20.6932 50.451 20.7118C50.4323 20.7305 50.423 20.7585 50.423 20.7958V21.7198C50.423 21.9065 50.3296 21.9998 50.143 21.9998H48.015C47.8283 21.9998 47.735 21.9065 47.735 21.7198V2.67983C47.735 2.49316 47.8283 2.39983 48.015 2.39983H50.143C50.3296 2.39983 50.423 2.49316 50.423 2.67983V8.92383C50.423 8.96116 50.4323 8.98916 50.451 9.00783C50.4883 9.02649 50.5256 9.01716 50.563 8.97983C50.9736 8.51316 51.459 8.15849 52.019 7.91583C52.5976 7.65449 53.2043 7.52383 53.839 7.52383C55.239 7.52383 56.387 7.86916 57.283 8.55983C58.179 9.25049 58.823 10.2118 59.215 11.4438ZM56.247 18.3598C56.7136 17.4825 56.947 16.3252 56.947 14.8878C56.947 13.3572 56.6483 12.1252 56.051 11.1918C55.5096 10.2958 54.679 9.84783 53.559 9.84783C52.5136 9.84783 51.7203 10.3238 51.179 11.2758C50.6936 12.1345 50.451 13.3292 50.451 14.8598C50.451 16.3905 50.675 17.5665 51.123 18.3878C51.683 19.3958 52.5043 19.8998 53.587 19.8998C54.819 19.8998 55.7056 19.3865 56.247 18.3598Z" fill="black"/>
<path d="M64.8075 5.50783C64.2849 5.50783 63.8555 5.33983 63.5195 5.00383C63.1835 4.66783 63.0155 4.23849 63.0155 3.71583C63.0155 3.19316 63.1835 2.76383 63.5195 2.42783C63.8555 2.09183 64.2849 1.92383 64.8075 1.92383C65.3302 1.92383 65.7595 2.09183 66.0955 2.42783C66.4315 2.76383 66.5995 3.19316 66.5995 3.71583C66.5995 4.23849 66.4315 4.66783 66.0955 5.00383C65.7595 5.33983 65.3302 5.50783 64.8075 5.50783ZM63.6875 21.9718C63.5009 21.9718 63.4075 21.8785 63.4075 21.6918V8.02783C63.4075 7.84116 63.5009 7.74783 63.6875 7.74783H65.8155C66.0022 7.74783 66.0955 7.84116 66.0955 8.02783V21.6918C66.0955 21.8785 66.0022 21.9718 65.8155 21.9718H63.6875Z" fill="black"/>
<path d="M81.8563 13.0958C81.9309 13.8612 81.9589 14.7198 81.9403 15.6718C81.9403 15.8585 81.8469 15.9518 81.6603 15.9518H72.7283C72.6536 15.9518 72.6162 15.9892 72.6162 16.0638C72.6162 16.6985 72.6723 17.1838 72.7843 17.5198C72.9896 18.2665 73.4003 18.8545 74.0163 19.2838C74.6509 19.6945 75.4443 19.8998 76.3963 19.8998C77.7776 19.8998 78.8416 19.3305 79.5882 18.1918C79.6816 18.0052 79.8029 17.9772 79.9523 18.1078L81.5483 19.1718C81.6789 19.2838 81.7069 19.4052 81.6323 19.5358C81.1096 20.3758 80.3629 21.0385 79.3923 21.5238C78.4402 22.0092 77.3576 22.2518 76.1443 22.2518C74.7816 22.2518 73.6336 21.9532 72.7002 21.3558C71.7669 20.7585 71.0669 19.9092 70.6003 18.8078C70.1523 17.7065 69.9283 16.3718 69.9283 14.8038C69.9283 13.4412 70.0309 12.4052 70.2363 11.6958C70.5723 10.4078 71.2442 9.39049 72.2523 8.64383C73.2603 7.89716 74.4829 7.52383 75.9202 7.52383C77.8056 7.52383 79.2149 7.99983 80.1483 8.95183C81.0816 9.88516 81.6509 11.2665 81.8563 13.0958ZM75.9202 9.84783C75.1176 9.84783 74.4549 10.0532 73.9323 10.4638C73.4096 10.8558 73.0549 11.3878 72.8683 12.0598C72.7376 12.4705 72.6536 12.9932 72.6162 13.6278C72.6162 13.7025 72.6536 13.7398 72.7283 13.7398H79.1403C79.2149 13.7398 79.2523 13.7025 79.2523 13.6278C79.2149 13.0118 79.1589 12.5545 79.0843 12.2558C78.8976 11.5278 78.5243 10.9492 77.9643 10.5198C77.4229 10.0718 76.7416 9.84783 75.9202 9.84783Z" fill="black"/>
<path d="M0.28 43.9998C0.0933334 43.9998 0 43.9065 0 43.7198V24.6798C0 24.4932 0.0933334 24.3998 0.28 24.3998H2.408C2.59467 24.3998 2.688 24.4932 2.688 24.6798V41.5638C2.688 41.6385 2.72533 41.6758 2.8 41.6758H12.46C12.6467 41.6758 12.74 41.7692 12.74 41.9558V43.7198C12.74 43.9065 12.6467 43.9998 12.46 43.9998H0.28Z" fill="black"/>
<path d="M27.1688 35.0958C27.2434 35.8612 27.2714 36.7198 27.2528 37.6718C27.2528 37.8585 27.1594 37.9518 26.9728 37.9518H18.0408C17.9661 37.9518 17.9288 37.9892 17.9288 38.0638C17.9288 38.6985 17.9848 39.1838 18.0968 39.5198C18.3021 40.2665 18.7128 40.8545 19.3288 41.2838C19.9634 41.6945 20.7568 41.8998 21.7087 41.8998C23.0901 41.8998 24.1541 41.3305 24.9008 40.1918C24.9941 40.0052 25.1154 39.9772 25.2648 40.1078L26.8608 41.1718C26.9914 41.2838 27.0194 41.4052 26.9448 41.5358C26.4221 42.3758 25.6754 43.0385 24.7048 43.5238C23.7528 44.0092 22.6701 44.2518 21.4568 44.2518C20.0941 44.2518 18.9461 43.9532 18.0128 43.3558C17.0794 42.7585 16.3794 41.9092 15.9128 40.8078C15.4648 39.7065 15.2408 38.3718 15.2408 36.8038C15.2408 35.4412 15.3434 34.4052 15.5487 33.6958C15.8848 32.4078 16.5568 31.3905 17.5648 30.6438C18.5728 29.8972 19.7954 29.5238 21.2327 29.5238C23.1181 29.5238 24.5274 29.9998 25.4608 30.9518C26.3941 31.8852 26.9634 33.2665 27.1688 35.0958ZM21.2327 31.8478C20.4301 31.8478 19.7674 32.0532 19.2448 32.4638C18.7221 32.8558 18.3674 33.3878 18.1807 34.0598C18.0501 34.4705 17.9661 34.9932 17.9288 35.6278C17.9288 35.7025 17.9661 35.7398 18.0408 35.7398H24.4528C24.5274 35.7398 24.5648 35.7025 24.5648 35.6278C24.5274 35.0118 24.4714 34.5545 24.3968 34.2558C24.2101 33.5278 23.8368 32.9492 23.2768 32.5198C22.7354 32.0718 22.0541 31.8478 21.2327 31.8478Z" fill="black"/>
<path d="M37.0005 29.5518C38.5311 29.5518 39.7445 29.9998 40.6405 30.8958C41.5365 31.7732 41.9845 32.9678 41.9845 34.4798V43.7198C41.9845 43.9065 41.8911 43.9998 41.7045 43.9998H39.5765C39.3898 43.9998 39.2965 43.9065 39.2965 43.7198V35.0118C39.2965 34.0785 39.0258 33.3225 38.4845 32.7438C37.9431 32.1652 37.2245 31.8758 36.3285 31.8758C35.4511 31.8758 34.7325 32.1652 34.1725 32.7438C33.6125 33.3225 33.3325 34.0692 33.3325 34.9838V43.7198C33.3325 43.9065 33.2391 43.9998 33.0525 43.9998H30.9245C30.7378 43.9998 30.6445 43.9065 30.6445 43.7198V30.0278C30.6445 29.8412 30.7378 29.7478 30.9245 29.7478H33.0525C33.2391 29.7478 33.3325 29.8412 33.3325 30.0278V31.0358C33.3325 31.0732 33.3418 31.1012 33.3605 31.1198C33.3978 31.1385 33.4258 31.1292 33.4445 31.0918C34.2471 30.0652 35.4325 29.5518 37.0005 29.5518Z" fill="black"/>
<path d="M50.8322 44.1678C49.7122 44.1678 48.7229 43.9998 47.8643 43.6638C47.0243 43.3278 46.3709 42.8705 45.9042 42.2918C45.4376 41.6945 45.2043 41.0412 45.2043 40.3318V40.0238C45.2043 39.8372 45.2976 39.7438 45.4842 39.7438H47.5002C47.6869 39.7438 47.7802 39.8372 47.7802 40.0238V40.1638C47.7802 40.6865 48.0602 41.1438 48.6202 41.5358C49.1989 41.9278 49.9269 42.1238 50.8042 42.1238C51.6442 42.1238 52.3256 41.9465 52.8482 41.5918C53.3709 41.2185 53.6322 40.7518 53.6322 40.1918C53.6322 39.6505 53.3896 39.2492 52.9042 38.9878C52.4189 38.7078 51.6349 38.4185 50.5522 38.1198C49.4883 37.8212 48.5923 37.5225 47.8643 37.2238C47.1549 36.9065 46.5483 36.4678 46.0443 35.9078C45.5589 35.3292 45.3162 34.5918 45.3162 33.6958C45.3162 32.4452 45.8016 31.4558 46.7722 30.7278C47.7616 29.9812 49.0682 29.6078 50.6922 29.6078C51.7749 29.6078 52.7269 29.7852 53.5482 30.1398C54.3882 30.4758 55.0322 30.9518 55.4802 31.5678C55.9282 32.1838 56.1522 32.8745 56.1522 33.6398V33.7238C56.1522 33.9105 56.0589 34.0038 55.8722 34.0038H53.9123C53.7256 34.0038 53.6322 33.9105 53.6322 33.7238V33.6398C53.6322 33.0985 53.3616 32.6505 52.8202 32.2958C52.2976 31.9225 51.5789 31.7358 50.6642 31.7358C49.8429 31.7358 49.1709 31.8945 48.6483 32.2118C48.1442 32.5292 47.8923 32.9585 47.8923 33.4998C47.8923 34.0412 48.1349 34.4518 48.6202 34.7318C49.1242 35.0118 49.9269 35.3105 51.0282 35.6278C52.1109 35.9265 53.0069 36.2252 53.7162 36.5238C54.4442 36.8038 55.0602 37.2332 55.5642 37.8118C56.0682 38.3718 56.3202 39.1092 56.3202 40.0238C56.3202 41.2932 55.8162 42.3012 54.8083 43.0478C53.8189 43.7945 52.4936 44.1678 50.8322 44.1678Z" fill="black"/>
<path fill-rule="evenodd" clip-rule="evenodd" d="M81.704 44L81.704 4.37114e-08L82.704 0L82.704 44L81.704 44Z" fill="black"/>
<path fill-rule="evenodd" clip-rule="evenodd" d="M72.704 44L72.704 26L73.704 26L73.704 44L72.704 44Z" fill="black"/>
<path fill-rule="evenodd" clip-rule="evenodd" d="M63.704 44L63.704 30L64.704 30L64.704 44L63.704 44Z" fill="black"/>
</svg>
