<svg width="37" height="31" viewBox="0 0 37 31" fill="none" xmlns="http://www.w3.org/2000/svg">
<path d="M32.9541 7.50926L32.7448 7.66662L32.755 7.92828C32.7664 8.22345 32.7724 8.51889 32.7724 8.81566C32.7724 19.5033 24.8734 30.5 11.7046 30.5C8.09812 30.5 4.57627 29.5525 1.44272 27.7473C1.62066 27.7535 1.79861 27.7566 1.97611 27.7566C5.29609 27.7566 8.44128 26.6997 11.0985 24.6975L12.1399 23.9128L10.8408 23.8C8.12994 23.5648 5.76885 21.7702 4.7593 19.1574C5.49872 19.2492 6.2426 19.2336 6.96548 19.1127L7.03522 18.1433C4.19904 17.2367 2.15576 14.5762 1.98275 11.4813C2.73584 11.8426 3.54411 12.0798 4.3699 12.182L6.08403 12.3942L4.74833 11.2991C3.03954 9.89819 2.03229 7.77103 2.03229 5.49007C2.03229 4.3342 2.29375 3.19675 2.79081 2.17275C6.6061 6.77508 12.0966 9.60493 17.9625 9.97747L18.6076 10.0184L18.4851 9.38371C18.3932 8.90775 18.3464 8.41614 18.3464 7.91936C18.3464 3.81506 21.5898 0.5 25.5457 0.5C27.4923 0.5 29.3779 1.32332 30.7307 2.76607L30.9229 2.9711L31.198 2.91343C32.5975 2.62007 33.9417 2.13082 35.2059 1.45607C34.7077 2.58968 33.9381 3.57727 32.967 4.32831L33.361 5.216C34.2438 5.05793 35.1082 4.82232 35.9461 4.5111C35.0891 5.65293 34.0862 6.65817 32.9541 7.50926ZM1.49377 11.2247L1.49662 11.2263C1.49567 11.2258 1.49471 11.2252 1.49377 11.2247ZM2.48459 1.79499L2.4846 1.79501L2.48459 1.79499Z" fill="white" stroke="#1F2039"/>
</svg>
